<svg version="1.1" xmlns="http://www.w3.org/2000/svg" viewBox="0 0 787 391" width="2361" height="1173">
  <!-- svg-source:excalidraw -->
  
  <defs>
    <style class="style-fonts">
      @font-face {
        font-family: "Virgil";
        src: url("https://excalidraw.com/Virgil.woff2");
      }
      @font-face {
        font-family: "Cascadia";
        src: url("https://excalidraw.com/Cascadia.woff2");
      }
      @font-face {
        font-family: "Assistant";
        src: url("https://excalidraw.com/Assistant-Regular.woff2");
      }
    </style>
    
  </defs>
  <rect x="0" y="0" width="787" height="391" fill="#ffffff"></rect><g stroke-linecap="round" transform="translate(10 10) rotate(0 383.5 185.5)"><path d="M32 0 C283.87 -0.18, 535.69 -0.87, 735 0 M32 0 C227.56 2.02, 423.69 1.95, 735 0 M735 0 C756.09 -1.59, 768.24 9.94, 767 32 M735 0 C757.73 0.17, 768.48 12.71, 767 32 M767 32 C765.56 116.58, 765.33 202.02, 767 339 M767 32 C767.92 116.96, 766.68 200.65, 767 339 M767 339 C765.37 359.75, 757.5 369.94, 735 371 M767 339 C768.14 359.38, 757.14 373.18, 735 371 M735 371 C537.59 369.71, 340.45 369.68, 32 371 M735 371 C558.69 370.01, 382.3 370.21, 32 371 M32 371 C11.82 371.57, -0.24 360.69, 0 339 M32 371 C8.7 370.22, -2.13 360.27, 0 339 M0 339 C2.08 260.49, -0.01 181.75, 0 32 M0 339 C1.16 217.73, 0.22 95.23, 0 32 M0 32 C-1.29 11.42, 12.19 -1.41, 32 0 M0 32 C-0.13 8.8, 11.96 1.15, 32 0" stroke="#f08c00" stroke-width="4" fill="none"></path></g><g stroke-linecap="round" transform="translate(27.640343059797317 133.3666066685221) rotate(0 174.99999999999997 87)"><path d="M195.24 0.85 C213.53 0.76, 232.65 5.43, 249.64 9.23 C266.64 13.04, 283.69 17.41, 297.22 23.68 C310.75 29.95, 322.24 38.2, 330.83 46.86 C339.42 55.53, 346.22 66.3, 348.75 75.67 C351.27 85.04, 349.71 93.85, 345.97 103.08 C342.22 112.31, 335.75 122.83, 326.29 131.06 C316.84 139.3, 303.34 146.33, 289.24 152.51 C275.14 158.7, 259.16 164.51, 241.69 168.17 C224.22 171.82, 203.47 174.1, 184.4 174.45 C165.33 174.79, 145.41 172.89, 127.29 170.24 C109.17 167.59, 91.31 163.75, 75.71 158.56 C60.1 153.36, 44.93 146.57, 33.67 139.09 C22.41 131.6, 13.68 122.74, 8.14 113.66 C2.61 104.58, 0 94.2, 0.48 84.59 C0.96 74.98, 4.28 64.76, 11 55.99 C17.73 47.23, 28.84 39.33, 40.83 32.01 C52.81 24.7, 67 17.22, 82.91 12.11 C98.81 7.01, 115.52 3.24, 136.26 1.37 C157.01 -0.5, 193.37 0.19, 207.36 0.9 C221.35 1.6, 220.64 3.9, 220.19 5.58 M198.28 0.76 C216.48 0.38, 236.54 4.16, 253.39 8.59 C270.24 13.02, 286.29 20.72, 299.39 27.35 C312.5 33.98, 323.69 40.13, 332.02 48.38 C340.36 56.63, 346.85 67.18, 349.39 76.87 C351.94 86.56, 351.4 97.39, 347.28 106.53 C343.16 115.68, 334.61 123.63, 324.68 131.76 C314.75 139.9, 302.36 149.36, 287.69 155.33 C273.01 161.3, 254.33 164.29, 236.62 167.57 C218.92 170.84, 200.46 174.52, 181.47 174.97 C162.49 175.41, 140.87 173.11, 122.7 170.22 C104.54 167.33, 87.54 163.01, 72.49 157.63 C57.44 152.26, 43.53 145.96, 32.42 137.95 C21.31 129.94, 11.28 118.7, 5.81 109.56 C0.34 100.42, -1.59 92.11, -0.4 83.1 C0.79 74.1, 5.78 64.28, 12.94 55.54 C20.1 46.8, 30.26 38.06, 42.56 30.67 C54.86 23.27, 70.16 16.08, 86.75 11.16 C103.34 6.24, 123.41 2.78, 142.13 1.13 C160.85 -0.51, 189.71 1.16, 199.05 1.29 C208.39 1.42, 198.59 0.41, 198.16 1.9" stroke="none" stroke-width="0" fill="#ffec99"></path><path d="M238.62 5.32 C256.54 7.59, 273.73 15.12, 288.11 21.4 C302.49 27.68, 315.24 35.1, 324.9 43 C334.55 50.91, 342.05 59.74, 346.04 68.83 C350.03 77.92, 351.18 88.08, 348.83 97.54 C346.49 107, 340.19 117.15, 331.96 125.6 C323.72 134.05, 312.87 141.61, 299.43 148.24 C285.98 154.88, 268.33 161.35, 251.28 165.39 C234.23 169.44, 215.59 171.34, 197.12 172.5 C178.66 173.67, 158.99 174.15, 140.47 172.37 C121.94 170.59, 102.44 166.67, 85.99 161.82 C69.54 156.97, 54 150.37, 41.76 143.27 C29.52 136.18, 19.48 127.84, 12.55 119.24 C5.62 110.65, 1.08 101.17, 0.16 91.69 C-0.76 82.21, 1.56 71.64, 7.04 62.35 C12.51 53.06, 21.96 43.59, 33 35.96 C44.04 28.33, 57.82 22.1, 73.25 16.57 C88.68 11.05, 107.33 5.53, 125.57 2.8 C143.82 0.07, 162.19 -0.84, 182.7 0.18 C203.22 1.21, 236.23 6.82, 248.66 8.95 C261.1 11.08, 258.37 11.66, 257.32 12.94 M126.07 4.21 C142.77 0.15, 165.8 -1.56, 184.91 -1.14 C204.01 -0.72, 223.2 2.88, 240.69 6.74 C258.17 10.6, 275.49 15.76, 289.8 22.01 C304.11 28.26, 316.91 36.09, 326.55 44.23 C336.2 52.37, 343.91 62, 347.65 70.87 C351.4 79.73, 351.48 88.38, 349.02 97.41 C346.57 106.45, 341.37 116.49, 332.93 125.09 C324.5 133.69, 312.07 142.22, 298.4 149.02 C284.74 155.83, 268.09 161.72, 250.92 165.91 C233.75 170.11, 214.46 173.08, 195.39 174.19 C176.33 175.3, 155.17 174.93, 136.53 172.55 C117.88 170.17, 99.39 164.88, 83.53 159.91 C67.67 154.95, 53.21 149.93, 41.37 142.76 C29.52 135.59, 19.34 125.76, 12.47 116.88 C5.61 108.01, 0.96 98.84, 0.17 89.5 C-0.62 80.15, 2.23 69.55, 7.71 60.83 C13.19 52.1, 21.94 44.73, 33.02 37.14 C44.1 29.55, 58.42 20.68, 74.2 15.26 C89.98 9.85, 118.58 6.37, 127.71 4.65 C136.83 2.93, 128.15 3.71, 128.95 4.92" stroke="#f08c00" stroke-width="4" fill="none"></path></g><g stroke-linecap="round" transform="translate(398.92238107750575 139.13389183451795) rotate(0 181.44437501174758 81.76394530295504)"><path d="M243.43 4.34 C262.15 5.95, 280.38 12.8, 295.77 18.39 C311.15 23.99, 325.22 30.65, 335.75 37.91 C346.28 45.16, 354.66 53.33, 358.96 61.94 C363.25 70.55, 363.51 80.71, 361.54 89.56 C359.57 98.42, 355.32 106.97, 347.14 115.08 C338.96 123.19, 326.03 131.85, 312.47 138.23 C298.91 144.62, 283.18 149.47, 265.78 153.39 C248.37 157.32, 227.5 160.26, 208.02 161.78 C188.55 163.3, 168.28 164.03, 148.91 162.51 C129.54 160.99, 109.02 157.05, 91.82 152.63 C74.62 148.22, 58.67 142.6, 45.7 136.02 C32.73 129.44, 21.5 121.18, 14.01 113.15 C6.52 105.13, 2.14 96.56, 0.75 87.86 C-0.64 79.15, 0.67 69.45, 5.68 60.92 C10.68 52.39, 19.74 44.06, 30.77 36.69 C41.8 29.32, 56.06 22.11, 71.85 16.7 C87.64 11.29, 106.63 7.01, 125.51 4.23 C144.39 1.46, 163.69 -0.46, 185.13 0.04 C206.57 0.55, 240.98 5.37, 254.16 7.27 C267.33 9.16, 265.23 10.22, 264.18 11.43 M141.44 2.16 C159.1 -1.09, 183.05 -1.78, 202.56 -0.78 C222.06 0.21, 240.8 4.11, 258.49 8.13 C276.18 12.15, 294.77 17.02, 308.72 23.32 C322.67 29.62, 333.34 38.17, 342.18 45.92 C351.02 53.67, 358.95 61.42, 361.74 69.82 C364.53 78.22, 362.88 87.4, 358.94 96.32 C354.99 105.24, 347.97 115.71, 338.08 123.33 C328.18 130.96, 314.48 136.59, 299.54 142.09 C284.61 147.58, 266.29 152.68, 248.45 156.3 C230.62 159.92, 211.87 163.09, 192.52 163.83 C173.18 164.57, 151.6 163.08, 132.37 160.72 C113.14 158.37, 93.43 154.98, 77.17 149.68 C60.9 144.37, 46.06 136.12, 34.8 128.89 C23.54 121.67, 15.62 114.58, 9.61 106.33 C3.61 98.08, -1.51 88.44, -1.25 79.38 C-0.99 70.33, 4.23 60.35, 11.2 51.99 C18.16 43.63, 27.83 35.65, 40.55 29.2 C53.28 22.75, 70.6 17.92, 87.52 13.27 C104.45 8.61, 133.08 3.08, 142.11 1.25 C151.14 -0.58, 140.95 0.82, 141.69 2.3" stroke="none" stroke-width="0" fill="#ffec99"></path><path d="M235.71 4.38 C254.38 5.64, 273.4 9.7, 289.27 14.93 C305.14 20.17, 319.79 28.24, 330.95 35.78 C342.11 43.32, 350.96 51.82, 356.25 60.17 C361.54 68.51, 363.95 77.17, 362.71 85.84 C361.47 94.52, 356.32 104.09, 348.81 112.22 C341.29 120.35, 330.21 127.74, 317.64 134.62 C305.06 141.49, 290.22 148.82, 273.34 153.45 C256.46 158.09, 235.66 160.74, 216.34 162.45 C197.01 164.16, 176.68 164.83, 157.37 163.72 C138.06 162.61, 118.23 159.99, 100.47 155.79 C82.71 151.58, 64.62 144.99, 50.82 138.5 C37.02 132.02, 26.07 124.66, 17.68 116.86 C9.28 109.07, 2.75 100.63, 0.43 91.73 C-1.89 82.83, -0.52 72.33, 3.76 63.46 C8.03 54.6, 15.84 45.93, 26.06 38.54 C36.29 31.15, 49.97 24.61, 65.08 19.14 C80.2 13.68, 98.38 8.8, 116.74 5.75 C135.1 2.71, 153.92 0.99, 175.22 0.86 C196.51 0.72, 231.94 3.72, 244.53 4.92 C257.12 6.12, 252.02 6.77, 250.75 8.04 M227.54 2.14 C246.41 3.01, 267.5 9.03, 283.82 14 C300.15 18.98, 313.98 25.07, 325.51 31.99 C337.04 38.91, 346.63 46.81, 353.01 55.52 C359.38 64.24, 363.86 75.14, 363.75 84.27 C363.65 93.4, 358.97 102.21, 352.37 110.29 C345.78 118.37, 336.26 126.12, 324.17 132.77 C312.09 139.42, 296.79 145.66, 279.85 150.21 C262.91 154.75, 241.98 157.95, 222.51 160.06 C203.04 162.18, 182.5 163.6, 163.04 162.9 C143.57 162.19, 123.49 159.24, 105.75 155.85 C88.01 152.47, 70.76 148.47, 56.62 142.58 C42.48 136.7, 29.93 128.69, 20.91 120.56 C11.89 112.42, 5.68 102.88, 2.48 93.76 C-0.73 84.65, -1.91 74.7, 1.7 65.87 C5.31 57.04, 14.27 48.14, 24.12 40.79 C33.97 33.45, 46.58 27.58, 60.8 21.79 C75.03 15.99, 91.22 9.86, 109.46 6.02 C127.7 2.18, 150.45 -0.58, 170.22 -1.25 C189.99 -1.92, 218.68 1.07, 228.09 2 C237.51 2.93, 227.24 2.85, 226.72 4.33" stroke="#f08c00" stroke-width="4" fill="none"></path></g><g stroke-opacity="0.7" fill-opacity="0.7" transform="translate(492.0548438704135 174.13152545150123) rotate(0 5 12.5)"><text x="0" y="17.52" font-family="Virgil, Segoe UI Emoji" font-size="20px" fill="#f08c00" text-anchor="start" style="white-space: pre;" direction="ltr" dominant-baseline="alphabetic"></text></g><g transform="translate(105.34992903243744 171.22433535820514) rotate(0 108.5 57.359686692170214)"><text x="0" y="20.098834216936446" font-family="Virgil, Segoe UI Emoji" font-size="22.943874676868088px" fill="#f08c00" text-anchor="start" style="white-space: pre;" direction="ltr" dominant-baseline="alphabetic">'name': 'H.A.S.H.I.M',</text><text x="0" y="48.77867756302156" font-family="Virgil, Segoe UI Emoji" font-size="22.943874676868088px" fill="#f08c00" text-anchor="start" style="white-space: pre;" direction="ltr" dominant-baseline="alphabetic"></text><text x="0" y="77.45852090910667" font-family="Virgil, Segoe UI Emoji" font-size="22.943874676868088px" fill="#f08c00" text-anchor="start" style="white-space: pre;" direction="ltr" dominant-baseline="alphabetic">'born': 1999</text><text x="0" y="106.13836425519179" font-family="Virgil, Segoe UI Emoji" font-size="22.943874676868088px" fill="#f08c00" text-anchor="start" style="white-space: pre;" direction="ltr" dominant-baseline="alphabetic"> </text></g><g transform="translate(481.57698124625404 174.11766464698005) rotate(0 107.82916188735805 57.359686692170186)"><text x="0" y="20.098834216936446" font-family="Virgil, Segoe UI Emoji" font-size="22.943874676868088px" fill="#f08c00" text-anchor="start" style="white-space: pre;" direction="ltr" dominant-baseline="alphabetic">'name': 'H.A.S.H.I.M',</text><text x="0" y="48.77867756302156" font-family="Virgil, Segoe UI Emoji" font-size="22.943874676868088px" fill="#f08c00" text-anchor="start" style="white-space: pre;" direction="ltr" dominant-baseline="alphabetic"></text><text x="0" y="77.45852090910667" font-family="Virgil, Segoe UI Emoji" font-size="22.943874676868088px" fill="#f08c00" text-anchor="start" style="white-space: pre;" direction="ltr" dominant-baseline="alphabetic">'born': 1999</text><text x="0" y="106.13836425519179" font-family="Virgil, Segoe UI Emoji" font-size="22.943874676868088px" fill="#f08c00" text-anchor="start" style="white-space: pre;" direction="ltr" dominant-baseline="alphabetic"> </text></g><g transform="translate(231.4052783284875 211.42930291006323) rotate(0 14.546689728136641 36.36672432034152)"><text x="0" y="50.9716008073907" font-family="Virgil, Segoe UI Emoji" font-size="58.18675891254646px" fill="#f08c00" text-anchor="start" style="white-space: pre;" direction="ltr" dominant-baseline="alphabetic">}</text></g><g transform="translate(83.43158754236919 159.8771783781253) rotate(0 13.61468626891616 30.942468792991292)"><text x="0" y="43.368964260256575" font-family="Virgil, Segoe UI Emoji" font-size="49.50795006878604px" fill="#f08c00" text-anchor="start" style="white-space: pre;" direction="ltr" dominant-baseline="alphabetic">{</text></g><g transform="translate(459.3218421814287 158.6201097967303) rotate(0 13.61468626891616 30.942468792991264)"><text x="0" y="43.368964260256575" font-family="Virgil, Segoe UI Emoji" font-size="49.50795006878604px" fill="#f08c00" text-anchor="start" style="white-space: pre;" direction="ltr" dominant-baseline="alphabetic">{</text></g><g transform="translate(609.2275364267674 210.3853305838273) rotate(0 14.546689728136641 36.36672432034152)"><text x="0" y="50.9716008073907" font-family="Virgil, Segoe UI Emoji" font-size="58.18675891254646px" fill="#f08c00" text-anchor="start" style="white-space: pre;" direction="ltr" dominant-baseline="alphabetic">}</text></g><g transform="translate(74.83956678704624 107.37038487337367) rotate(340.75812172197556 5 12.5)"><text x="0" y="17.52" font-family="Virgil, Segoe UI Emoji" font-size="20px" fill="#f08c00" text-anchor="start" style="white-space: pre;" direction="ltr" dominant-baseline="alphabetic"></text></g><g stroke-linecap="round" transform="translate(506.70097275289606 85.32570469964534) rotate(0.5314297587817693 76.43110905926784 36.045331027186336)"><path d="M0.48 1.94 L151.94 1.25 L154.42 73.67 L0.68 71.46" stroke="none" stroke-width="0" fill="#ffec99"></path><path d="M0 0 C37.18 -1.61, 74.79 1.34, 152.86 0 M0 0 C56.2 -1.27, 112.3 -1.67, 152.86 0 M152.86 0 C153.95 29.57, 153.24 57.9, 152.86 72.09 M152.86 0 C153.4 16.63, 153.79 34.34, 152.86 72.09 M152.86 72.09 C91.32 72.57, 31.43 74.91, 0 72.09 M152.86 72.09 C118.43 72.69, 83.12 72.83, 0 72.09 M0 72.09 C-1.34 54.4, 0.56 34.3, 0 0 M0 72.09 C0.06 48.75, 0.1 24.61, 0 0" stroke="#e03131" stroke-width="2" fill="none"></path></g><g transform="translate(554.1320818121638 108.87103572683168) rotate(0.5314297587817693 29 12.5)"><text x="29" y="17.52" font-family="Virgil, Segoe UI Emoji" font-size="20px" fill="#f08c00" text-anchor="middle" style="white-space: pre;" direction="ltr" dominant-baseline="alphabetic">Ahmed</text></g><g stroke-linecap="round" transform="translate(213.5 87.77606226596902) rotate(19.916405993809086 68.5 35)"><path d="M-0.99 -1.96 L137.74 1.41 L135.19 69.07 L1.12 69.48" stroke="none" stroke-width="0" fill="#ffec99"></path><path d="M0 0 C36.23 0.53, 69.89 0.16, 137 0 M0 0 C55.27 1.71, 108.29 0.74, 137 0 M137 0 C137.58 24.82, 136.73 49.5, 137 70 M137 0 C136.72 17.58, 137.52 37.72, 137 70 M137 70 C94.8 71.84, 52.16 69.73, 0 70 M137 70 C107.01 71.5, 77.4 70.75, 0 70 M0 70 C2.33 52.96, 2.22 31.33, 0 0 M0 70 C-1.24 56.04, 0.35 42.16, 0 0" stroke="#e03131" stroke-width="2" fill="none"></path></g><g transform="translate(251 110.27606226596902) rotate(19.916405993809086 31 12.5)"><text x="31" y="17.52" font-family="Virgil, Segoe UI Emoji" font-size="20px" fill="#f08c00" text-anchor="middle" style="white-space: pre;" direction="ltr" dominant-baseline="alphabetic">Hashim</text></g><g stroke-linecap="round" transform="translate(36.97226561765774 82.1664448658019) rotate(340.75812172197556 68.5 35)"><path d="M-0.07 -0.83 L137.86 -1.89 L136.1 69.35 L1.89 69.34" stroke="none" stroke-width="0" fill="#ffec99"></path><path d="M0 0 C41.69 -0.35, 78.7 -0.68, 137 0 M0 0 C38.96 0.91, 77.24 0.41, 137 0 M137 0 C136.43 15.27, 136.25 26.98, 137 70 M137 0 C137.02 25.54, 136.57 49.01, 137 70 M137 70 C103.38 70.64, 70.99 70.68, 0 70 M137 70 C93.68 70.58, 51.11 70.48, 0 70 M0 70 C1.41 48.98, 1.2 27.22, 0 0 M0 70 C-0.81 54.73, -0.74 39.85, 0 0" stroke="#e03131" stroke-width="2" fill="none"></path></g><g transform="translate(55.97226561765774 104.6664448658019) rotate(340.75812172197556 49.5 12.5)"><text x="49.5" y="17.52" font-family="Virgil, Segoe UI Emoji" font-size="20px" fill="#f08c00" text-anchor="middle" style="white-space: pre;" direction="ltr" dominant-baseline="alphabetic">Muhammad</text></g></svg>