<?xml version="1.0" encoding="UTF-8"?>
<svg version="1.1" xmlns="http://www.w3.org/2000/svg" width="1536" height="488">
<path d="M0 0 C506.88 0 1013.76 0 1536 0 C1536 161.04 1536 322.08 1536 488 C1029.12 488 522.24 488 0 488 C0 326.96 0 165.92 0 0 Z " fill="#FEFEFE" transform="translate(0,0)"/>
<path d="M0 0 C0.84796143 0.00432037 1.69592285 0.00864075 2.56958008 0.01309204 C24.67694032 0.14483195 51.78684263 0.37468927 68.99609375 16.4765625 C76.44596578 24.43220566 79.88673288 32.02913789 79.94287109 42.95458984 C79.95513733 44.26991699 79.95513733 44.26991699 79.96765137 45.61181641 C79.99249984 48.5198499 80.00902696 51.4278343 80.0234375 54.3359375 C80.02876118 55.33195606 80.03408485 56.32797462 80.03956985 57.35417557 C80.06630895 62.63405843 80.08567472 67.91391768 80.10009766 73.19384766 C80.11339396 77.54692804 80.14116577 81.89953489 80.18212891 86.25244141 C80.23170365 91.52091776 80.25625014 96.78896717 80.26332474 102.05766678 C80.26999992 104.05655195 80.28512337 106.05542902 80.30921555 108.05418015 C80.49153515 124.10584869 78.81414334 136.96381723 67.1640625 149.015625 C54.31087236 160.9636609 37.12685006 161.81725686 20.49939728 161.78569031 C17.88215233 161.78112623 15.26555355 161.79544596 12.64837646 161.81408691 C6.15878394 161.85662157 -0.33078818 161.86809209 -6.82049561 161.88031006 C-12.33503511 161.891901 -17.84927251 161.91561373 -23.36368561 161.95500183 C-25.92217843 161.96842372 -28.48024408 161.96443131 -31.03875732 161.95959473 C-45.21821 162.00682851 -57.71389669 163.98881204 -68.4375 174.0625 C-78.29110006 184.5245893 -81.67328283 195.95080998 -81.76171875 210.0703125 C-81.78864555 211.68049759 -81.78864555 211.68049759 -81.81611633 213.32321167 C-81.86983039 216.71543577 -81.90398988 220.10752235 -81.9375 223.5 C-81.97070741 225.81512315 -82.00520018 228.13022823 -82.04101562 230.4453125 C-82.12553403 236.0884182 -82.19404667 241.73154259 -82.25 247.375 C-86.62415276 247.44993936 -90.99795155 247.50396881 -95.37255859 247.53979492 C-96.85634889 247.55475184 -98.34009599 247.57512495 -99.82373047 247.60131836 C-112.77154169 247.82395436 -123.66628924 246.51357016 -134.25 238.375 C-152.0544843 220.6057721 -155.28936093 191.52676939 -155.5625 167.625 C-155.50259586 144.8774012 -152.58323678 115.01466897 -135.86328125 97.75390625 C-127.70400522 90.7799972 -117.41479447 85.24259467 -106.47906494 85.25474548 C-105.52276688 85.25337082 -104.56646881 85.25199615 -103.58119202 85.25057983 C-102.01781349 85.25597275 -102.01781349 85.25597275 -100.42285156 85.26147461 C-99.32011398 85.26132858 -98.2173764 85.26118256 -97.08122253 85.2610321 C-93.43433672 85.26172907 -89.7875019 85.26951143 -86.140625 85.27734375 C-83.61285429 85.2792087 -81.08508321 85.28063224 -78.55731201 85.28163147 C-72.58276131 85.2850602 -66.60823252 85.29294266 -60.6336906 85.30298096 C-53.83082776 85.31416261 -47.02796405 85.31965772 -40.22509432 85.32467639 C-26.23338607 85.33512582 -12.24169404 85.35271248 1.75 85.375 C1.75 82.735 1.75 80.095 1.75 77.375 C-23.33 77.375 -48.41 77.375 -74.25 77.375 C-74.3325 70.506875 -74.415 63.63875 -74.5 56.5625 C-74.53641602 54.4177417 -74.57283203 52.2729834 -74.61035156 50.06323242 C-74.74122786 36.99843866 -74.16212611 26.28374029 -64.63671875 16.44140625 C-47.17695756 1.3248536 -22.06133569 -0.21421672 0 0 Z " fill="#347AA9" transform="translate(294.25,85.625)"/>
<path d="M0 0 C4.23173639 -0.07497625 8.46310588 -0.12898541 12.6953125 -0.16479492 C14.1306025 -0.17974586 15.56584791 -0.20011424 17.00097656 -0.22631836 C30.71661669 -0.47021573 41.30874866 1.23334986 51.8359375 10.640625 C61.84906339 21.06152525 66.83045421 35.19466246 70 49 C70.16371094 49.6997998 70.32742188 50.39959961 70.49609375 51.12060547 C76.7772582 79.36637908 75.85827917 115.84826807 60.71484375 141.47265625 C53.37681873 152.28746762 45.15205393 158.96006174 32.21679688 161.6418457 C20.78175868 163.79967774 9.18146063 163.37251915 -2.40625 163.29296875 C-4.82718643 163.28736167 -7.24812631 163.28309684 -9.66906738 163.28010559 C-15.98844076 163.26874439 -22.30760167 163.23935378 -28.62689209 163.20599365 C-35.09628426 163.17510304 -41.56571132 163.16155996 -48.03515625 163.14648438 C-60.69019664 163.11447453 -73.34508054 163.06338575 -86 163 C-86 165.97 -86 168.94 -86 172 C-60.26 172 -34.52 172 -8 172 C-8 221.83957219 -8 221.83957219 -19.19140625 233.23046875 C-37.70280217 249.06766622 -69.46520183 251.76137813 -93 250 C-105.62356063 248.87620072 -118.01274925 247.25058126 -130 243 C-131.03125 242.64164063 -132.0625 242.28328125 -133.125 241.9140625 C-144.04008885 237.76521495 -153.7059285 231.72388842 -159 221 C-161.56799734 215.06175406 -162.44004452 210.34800335 -162.40405273 203.9128418 C-162.41091599 203.04176788 -162.41777924 202.17069397 -162.42485046 201.27322388 C-162.44303904 198.41505277 -162.43929151 195.55743491 -162.43359375 192.69921875 C-162.43816012 190.69676029 -162.44346705 188.6943034 -162.44947815 186.69184875 C-162.45839428 182.50161358 -162.45600407 178.31156914 -162.44604492 174.12133789 C-162.43457125 168.77521819 -162.45475006 163.4297606 -162.48396206 158.08372784 C-162.5023905 153.94934466 -162.50201815 149.8151181 -162.49632454 145.68070412 C-162.49617206 143.71090582 -162.50215499 141.7410964 -162.51461601 139.77133751 C-162.59936395 124.17668521 -161.00415416 111.71273443 -149.96484375 99.8046875 C-137.94024944 88.31027812 -123.00310457 87.71280244 -107.18454742 87.69503975 C-104.52496571 87.69133214 -101.86574255 87.6744863 -99.20623779 87.65428162 C-91.65123209 87.59929502 -84.09617506 87.56829921 -76.54101562 87.54370117 C-71.89982043 87.52768972 -67.25888176 87.4973336 -62.61782074 87.45893669 C-60.86545312 87.44740825 -59.11303939 87.44135742 -57.36063385 87.44125557 C-41.45075169 87.43999556 -26.30971104 86.66831062 -13.875 75.5625 C-4.07638831 65.2543605 -0.73630093 52.14528773 -0.5859375 38.37890625 C-0.56657135 37.27900864 -0.5472052 36.17911102 -0.5272522 35.04588318 C-0.46773092 31.55149967 -0.42118073 28.05708274 -0.375 24.5625 C-0.33679499 22.18553294 -0.2977418 19.80857935 -0.2578125 17.43164062 C-0.16205201 11.62121381 -0.07692492 5.81070508 0 0 Z " fill="#FEE048" transform="translate(383,168)"/>
<path d="M0 0 C69.06624732 0 69.06624732 0 85.375 14.5625 C96.58459224 26.88594178 99.85897653 43.75777234 99.27734375 59.95703125 C98.36547138 75.59507489 94.05389556 91.14415897 82 102 C58.9398013 121.42770722 28.61818762 116 0 116 C0 77.72 0 39.44 0 0 Z " fill="#020202" transform="translate(1004,272)"/>
<path d="M0 0 C68.30033003 0 68.30033003 0 84.7421875 15.6171875 C97.82831388 29.42780531 98.55110252 45.83129152 98.34375 63.9140625 C97.85799146 79.25188841 92.26778687 91.58512297 81.109375 102.15625 C58.6646072 121.77463963 27.97470166 116 0 116 C0 77.72 0 39.44 0 0 Z " fill="#020202" transform="translate(540,272)"/>
<path d="M0 0 C8.49451598 6.29562741 13.85697802 15.65631602 16 26 C17.1705834 42.81603599 17.41737185 59.49472914 6 73 C-0.72938119 80.29499728 -7.9117405 84.02908911 -17.90307617 84.46972656 C-27.81109956 84.6127694 -34.58619304 82.04828418 -43 77 C-43.33 90.2 -43.66 103.4 -44 117 C-51.26 117 -58.52 117 -66 117 C-66 77.4 -66 37.8 -66 -3 C-59.07 -3 -52.14 -3 -45 -3 C-44.67 -0.36 -44.34 2.28 -44 5 C-43.53851562 4.61328125 -43.07703125 4.2265625 -42.6015625 3.828125 C-29.75225672 -6.43100451 -14.54601945 -8.76887697 0 0 Z " fill="#030404" transform="translate(909,306)"/>
<path d="M0 0 C60.24516129 0 60.24516129 0 71.96875 10.81640625 C79.35606873 18.56370025 81.57835411 26.53693347 81.40258789 37.09765625 C80.92662931 48.46672919 77.28452491 55.94523704 69.125 63.75 C58.30480278 71.540542 46.96074182 73.48550454 33.8125 73.1875 C29.914375 73.125625 26.01625 73.06375 22 73 C22 86.86 22 100.72 22 115 C14.74 115 7.48 115 0 115 C0 77.05 0 39.1 0 0 Z " fill="#010202" transform="translate(540,126)"/>
<path d="M0 0 C9.86139133 7.10284467 15.89565245 16.67586383 18.51953125 28.4921875 C19.85873338 43.56329116 18.26993449 56.92641415 8.6484375 69.1171875 C0.86400122 77.80147605 -9.30880789 81.74441482 -20.828125 82.68359375 C-32.11141091 83.18687701 -42.82396567 79.80778128 -51.48046875 72.4921875 C-60.82365577 63.88662051 -64.77314334 52.6330082 -65.734375 40.2109375 C-66.15008746 28.08822571 -63.46033816 16.86624099 -55.48046875 7.4921875 C-41.11734792 -7.22196684 -17.93439982 -10.90185564 0 0 Z " fill="#030304" transform="translate(938.48046875,161.5078125)"/>
<path d="M0 0 C6.93 0 13.86 0 21 0 C21 15.84 21 31.68 21 48 C23.64 46.02 26.28 44.04 29 42 C37.54690909 36.92527273 46.86877416 36.76553741 56.52734375 38.4375 C62.81281248 40.42893564 68.15988175 44.81309311 71.44120789 50.49603271 C75.10491235 58.75198406 75.73381806 65.98856339 75.70703125 74.953125 C75.72018252 76.34847133 75.73549709 77.74379876 75.75285339 79.13909912 C75.7923173 82.76896425 75.80286844 86.39832711 75.80688477 90.02838135 C75.81629015 93.74954091 75.85374877 97.47041418 75.88867188 101.19140625 C75.95285343 108.46099174 75.98381509 115.73012017 76 123 C68.74 123 61.48 123 54 123 C53.98541748 121.30472168 53.97083496 119.60944336 53.95581055 117.86279297 C53.9040582 112.24676871 53.83874535 106.63101044 53.76428509 101.01524162 C53.71965423 97.61207343 53.6803827 94.20902293 53.65356445 90.80566406 C53.62245771 86.88841433 53.56767108 82.97166424 53.51171875 79.0546875 C53.50532883 77.83884979 53.4989389 76.62301208 53.49235535 75.37033081 C53.40313231 67.2552403 53.40313231 67.2552403 50 60 C45.84897983 56.11678758 41.70354273 55.61561065 36.0859375 55.73046875 C31.6513864 56.30347254 28.52369457 58.31071295 25.60762024 61.54370117 C21.2751098 67.72216359 21.26801347 73.44030666 21.29296875 80.8125 C21.27784744 82.02196289 21.26272614 83.23142578 21.24714661 84.47753906 C21.20435799 88.31855035 21.1954394 92.15877437 21.1875 96 C21.16434908 98.61330205 21.13898252 101.22658548 21.11132812 103.83984375 C21.04856195 110.22663185 21.01615776 116.61293081 21 123 C14.07 123 7.14 123 0 123 C0 82.41 0 41.82 0 0 Z " fill="#020202" transform="translate(783,118)"/>
<path d="M0 0 C7.89309347 6.45385378 11.2764505 14.00859239 14.03515625 23.6640625 C14.03515625 29.9340625 14.03515625 36.2040625 14.03515625 42.6640625 C-4.11484375 42.6640625 -22.26484375 42.6640625 -40.96484375 42.6640625 C-39.02187754 52.37889353 -37.95002343 57.13586118 -29.96484375 62.6640625 C-18.65947136 66.43251996 -7.48913997 63.00177919 3.03515625 58.6640625 C4.35994166 58.29823124 5.69044161 57.94801923 7.03515625 57.6640625 C8.03999829 59.61991575 9.0388943 61.57882487 10.03515625 63.5390625 C10.59203125 64.62960937 11.14890625 65.72015625 11.72265625 66.84375 C13.03515625 69.6640625 13.03515625 69.6640625 13.03515625 71.6640625 C10.51803436 72.96341714 7.99686538 74.25360622 5.47265625 75.5390625 C4.76818359 75.90386719 4.06371094 76.26867187 3.33789062 76.64453125 C-8.50845154 82.64958949 -22.92248909 84.02650999 -35.94140625 80.859375 C-46.4666109 77.21700108 -53.93442341 70.63682372 -58.96484375 60.7265625 C-65.69500172 46.46273066 -65.44711677 31.45284917 -60.40234375 16.6640625 C-56.54037724 7.56698582 -48.75842857 0.05361143 -39.96484375 -4.3359375 C-26.27884613 -9.76492298 -12.00176279 -8.59385484 0 0 Z " fill="#060606" transform="translate(715.96484375,308.3359375)"/>
<path d="M0 0 C8.14813923 6.66514457 12.17002371 15.18009485 14.6875 25.25 C14.6875 31.19 14.6875 37.13 14.6875 43.25 C-3.7925 43.25 -22.2725 43.25 -41.3125 43.25 C-37.82495016 55.15461716 -37.82495016 55.15461716 -29.3125 63.25 C-21.00206622 66.02014459 -10.51259629 65.24797125 -2.5625 61.8125 C-1.66015625 61.36003906 -0.7578125 60.90757812 0.171875 60.44140625 C2.6875 59.25 2.6875 59.25 7.6875 58.25 C9.6675 62.54 11.6475 66.83 13.6875 71.25 C-0.48396214 81.47203826 -14.20214186 83.48514977 -31.3125 82.25 C-40.89936631 80.40231101 -48.83972133 74.82753138 -54.93359375 67.2890625 C-62.90710047 55.4982112 -65.14272501 41.18845415 -62.8125 27.26171875 C-59.85196626 15.36912013 -54.35282663 5.35299368 -43.7890625 -1.3515625 C-29.55051974 -8.84322653 -13.57868283 -9.41249605 0 0 Z " fill="#060606" transform="translate(809.3125,307.75)"/>
<path d="M0 0 C7.34084563 6.5736942 11.62235374 14.48941497 14 24 C14 30.27 14 36.54 14 43 C-4.15 43 -22.3 43 -41 43 C-38.40274086 54.53935938 -38.40274086 54.53935938 -30.75 62.375 C-23.26574295 65.67810786 -13.92673449 65.13466012 -6.21484375 62.90625 C-3.09286365 61.69547079 -0.05713592 60.36319657 3 59 C4.32 58.67 5.64 58.34 7 58 C8.98 62.29 10.96 66.58 13 71 C-0.64311434 80.68221018 -13.49374139 83.28461752 -30 82 C-40.69197376 80.15117954 -48.94312127 75.60692217 -55.3125 66.75 C-63.42399768 53.59134821 -65.18126449 37.53793328 -61.875 22.5625 C-58.95484533 12.67993954 -53.53326083 4.8446992 -45 -1 C-30.44792825 -8.5288711 -13.77834671 -10.00949166 0 0 Z " fill="#050506" transform="translate(1310,308)"/>
<path d="M0 0 C7.92 0 15.84 0 24 0 C27.37660661 7.87874876 27.37660661 7.87874876 28.7175293 11.95385742 C29.01761398 12.86137253 29.31769867 13.76888763 29.62687683 14.7039032 C29.93949966 15.66141983 30.2521225 16.61893646 30.57421875 17.60546875 C30.90291458 18.60709549 31.23161041 19.60872223 31.57026672 20.64070129 C32.26019624 22.74714072 32.94841389 24.85414153 33.63500977 26.96166992 C34.68817187 30.18955926 35.75105727 33.41414164 36.81445312 36.63867188 C37.48496989 38.6899098 38.15491184 40.74133574 38.82421875 42.79296875 C39.14291428 43.75655807 39.4616098 44.7201474 39.78996277 45.7129364 C40.08059097 46.61099503 40.37121918 47.50905365 40.6706543 48.43432617 C40.92807907 49.22151535 41.18550385 50.00870453 41.45072937 50.81974792 C42 53 42 53 42 57 C42.66 57 43.32 57 44 57 C44.13619751 55.62702759 44.13619751 55.62702759 44.27514648 54.22631836 C45.06149364 48.76428725 46.89198925 43.61018463 48.59765625 38.37890625 C48.95137802 37.27900864 49.30509979 36.17911102 49.66954041 35.04588318 C50.79523675 31.54968992 51.92874888 28.05608854 53.0625 24.5625 C53.82929396 22.1857139 54.59557575 19.8087625 55.36132812 17.43164062 C57.23495805 11.61916225 59.11559938 5.80899501 61 0 C67.93 0 74.86 0 82 0 C80.73516551 5.69175522 79.52765061 10.78034792 77.6809082 16.22192383 C77.45777451 16.88361572 77.23464081 17.54530762 77.00474548 18.22705078 C76.27457324 20.38859193 75.53778129 22.5478096 74.80078125 24.70703125 C74.28194202 26.23796393 73.76349162 27.76902843 73.2454071 29.30021667 C71.88288617 33.3232885 70.51459307 37.34437449 69.14520264 41.3651123 C67.77581569 45.3898633 66.41277046 49.41676081 65.04882812 53.44335938 C62.26267932 61.66409786 59.46118129 69.87952544 56.65184402 78.09236526 C56.04333482 79.87317979 55.43685729 81.65468818 54.83053589 83.43624878 C53.86645622 86.26670892 52.89573591 89.09476843 51.921875 91.921875 C51.6609053 92.69147049 51.39993561 93.46106598 51.13105774 94.25398254 C47.74456608 104.00463005 42.91462885 110.62021208 33.9375 115.75 C28.60395751 118.01959255 23.55084116 118.15615841 17.8125 118.125 C17.08869141 118.12886719 16.36488281 118.13273437 15.61914062 118.13671875 C10.25347222 118.12673611 10.25347222 118.12673611 8 117 C8 111.06 8 105.12 8 99 C8.99 99.33 9.98 99.66 11 100 C16.61599916 100.36826224 20.17665989 100.21556007 25 97 C29.30036033 92.79520324 30.8192353 89.99977143 31 84 C30.02864822 80.1890842 28.5808866 76.60343021 27.109375 72.9609375 C26.69320923 71.89371964 26.27704346 70.82650177 25.8482666 69.72694397 C24.4967576 66.27036975 23.12338035 62.82293486 21.75 59.375 C20.82346887 57.01377893 19.89866618 54.65187891 18.97558594 52.28930664 C17.15748388 47.64040259 15.33226857 42.99441274 13.5 38.35107422 C10.36506699 30.3993486 7.29148433 22.42535388 4.25 14.4375 C3.80366211 13.28233887 3.35732422 12.12717773 2.89746094 10.93701172 C2.30626465 9.38844482 2.30626465 9.38844482 1.703125 7.80859375 C1.36958008 6.94032959 1.03603516 6.07206543 0.69238281 5.17749023 C0 3 0 3 0 0 Z " fill="#040404" transform="translate(627,157)"/>
<path d="M0 0 C6.62439405 4.28000777 9.93352487 9.99456206 12.15234375 17.390625 C12.43113625 18.30935394 12.43113625 18.30935394 12.71556091 19.24664307 C13.2793158 22.01387702 13.27170513 24.61971614 13.26586914 27.44433594 C13.26575584 29.27578156 13.26575584 29.27578156 13.26564026 31.14422607 C13.26047897 32.45788147 13.25531769 33.77153687 13.25 35.125 C13.24813396 36.4869176 13.24671093 37.84883588 13.24571228 39.21075439 C13.24190178 42.78804389 13.23208407 46.36529252 13.2210083 49.94256592 C13.21076259 53.59581957 13.2062079 57.24907986 13.20117188 60.90234375 C13.19046044 68.06512492 13.17287557 75.22786402 13.15234375 82.390625 C5.89234375 82.390625 -1.36765625 82.390625 -8.84765625 82.390625 C-8.85700195 80.63476074 -8.86634766 78.87889648 -8.87597656 77.06982422 C-8.91156522 71.25420391 -8.9654022 65.43890466 -9.03155899 59.62356377 C-9.07098928 56.09928459 -9.10319907 52.57525359 -9.11865234 49.05078125 C-9.13675951 44.99438748 -9.18672947 40.93892012 -9.23828125 36.8828125 C-9.23950989 35.62322723 -9.24073853 34.36364197 -9.24200439 33.06588745 C-9.32869339 24.40624469 -9.32869339 24.40624469 -13.84765625 17.390625 C-18.27462356 15.17714135 -22.96346022 14.64201925 -27.84765625 15.390625 C-32.67641883 17.06643885 -36.11961409 18.97482728 -38.84765625 23.390625 C-39.31786935 26.21329851 -39.31786935 26.21329851 -39.2800293 29.35253906 C-39.29982346 30.55348206 -39.31961761 31.75442505 -39.3400116 32.99176025 C-39.34640152 34.28354187 -39.35279144 35.57532349 -39.359375 36.90625 C-39.37622633 38.24576461 -39.39437719 39.58526346 -39.41377258 40.92474365 C-39.46123021 44.44278027 -39.49106653 47.96075295 -39.51721191 51.47900391 C-39.54703914 55.07206855 -39.59356195 58.66491297 -39.63867188 62.2578125 C-39.72465653 69.30197118 -39.79047924 76.34616501 -39.84765625 83.390625 C-47.10765625 83.390625 -54.36765625 83.390625 -61.84765625 83.390625 C-61.84765625 55.340625 -61.84765625 27.290625 -61.84765625 -1.609375 C-54.91765625 -1.609375 -47.98765625 -1.609375 -40.84765625 -1.609375 C-40.51765625 1.360625 -40.18765625 4.330625 -39.84765625 7.390625 C-38.89890625 6.483125 -37.95015625 5.575625 -36.97265625 4.640625 C-26.76035536 -3.94421758 -12.17456401 -5.75303857 0 0 Z " fill="#050505" transform="translate(1033.84765625,158.609375)"/>
<path d="M0 0 C33.87750557 0 33.87750557 0 44.03515625 8.75390625 C48.57754605 13.5277554 51.02614786 18.76008034 53 25 C53.29003906 25.88945312 53.29003906 25.88945312 53.5859375 26.796875 C55.93066707 39.27260591 54.22258663 52.91768108 47.875 63.875 C42.35561891 71.93910627 36.04717769 74.60730837 27 78 C18.09 78 9.18 78 0 78 C0 52.26 0 26.52 0 0 Z " fill="#FDFDFD" transform="translate(1026,291)"/>
<path d="M0 0 C33.32142857 0 33.32142857 0 43.8984375 9.75 C52.55379102 18.80707879 54.34047765 29.65104517 54.21875 41.80859375 C53.53018119 51.85432089 50.2653059 62.7346941 43 70 C28.49898722 80.02570021 20.22211538 78 0 78 C0 52.26 0 26.52 0 0 Z " fill="#FDFDFD" transform="translate(562,291)"/>
<path d="M0 0 C8.25 0 16.5 0 25 0 C25.96421875 3.16980469 26.9284375 6.33960938 27.921875 9.60546875 C28.86844048 12.71673044 29.81507636 15.8279707 30.76171875 18.93920898 C31.41348486 21.08143926 32.06517919 23.22369137 32.71679688 25.3659668 C36.1285226 36.58227677 39.54143347 47.79802735 43 59 C45.94689266 51.95857255 48.40533936 44.85557394 50.63671875 37.55859375 C50.96162796 36.50970474 51.28653717 35.46081573 51.62129211 34.38014221 C52.64724788 31.06711404 53.66789358 27.75248725 54.6875 24.4375 C55.71817904 21.09049405 56.75007179 17.74388661 57.7858429 14.39845276 C58.42773204 12.32496664 59.06664212 10.25055553 59.70231628 8.17515564 C59.98964127 7.24651199 60.27696625 6.31786835 60.57299805 5.36108398 C60.825186 4.5407518 61.07737396 3.72041962 61.33720398 2.87522888 C62 1 62 1 63 0 C64.70772358 -0.08713831 66.41898649 -0.10700007 68.12890625 -0.09765625 C69.68061523 -0.09282227 69.68061523 -0.09282227 71.26367188 -0.08789062 C72.35228516 -0.07951172 73.44089844 -0.07113281 74.5625 -0.0625 C76.2012207 -0.05573242 76.2012207 -0.05573242 77.87304688 -0.04882812 C80.58208495 -0.03699826 83.29101599 -0.02051543 86 0 C83.86279877 6.4950519 81.62692346 12.9508757 79.33984375 19.39453125 C78.99332764 20.37282394 78.64681152 21.35111664 78.28979492 22.35905457 C77.17322962 25.51051087 76.05541248 28.66152135 74.9375 31.8125 C74.17062003 33.97589931 73.40377446 36.13931082 72.63696289 38.30273438 C67.1150968 53.87704809 61.56890098 69.44243536 56 85 C47.42 85 38.84 85 30 85 C28.92363281 82.02484375 27.84726563 79.0496875 26.73828125 75.984375 C26.3677916 74.9603508 25.99730194 73.9363266 25.61558533 72.88127136 C23.74116513 67.70014834 21.86731542 62.51881988 19.99438477 57.3371582 C14.97247239 43.44456529 14.97247239 43.44456529 9.93153381 29.55886841 C8.71519039 26.2150658 7.50106269 22.870461 6.28720093 19.52575684 C5.72146972 17.96894453 5.15459821 16.41254612 4.58657837 14.85656738 C3.80356955 12.71139007 3.02439345 10.56485817 2.24609375 8.41796875 C1.80966553 7.21938232 1.3732373 6.0207959 0.92358398 4.78588867 C0 2 0 2 0 0 Z " fill="#040404" transform="translate(1156,303)"/>
<path d="M0 0 C0 8.58 0 17.16 0 26 C5.94 26 11.88 26 18 26 C18 31.61 18 37.22 18 43 C12.06 43 6.12 43 0 43 C0.04410805 49.62077074 0.11389585 56.24058378 0.20751953 62.86083984 C0.23574911 65.11304096 0.2569537 67.36534152 0.27099609 69.61767578 C0.2923976 72.85501083 0.33903495 76.09114774 0.390625 79.328125 C0.39185364 80.33554749 0.39308228 81.34296997 0.39434814 82.38092041 C0.44718629 87.86629165 0.44718629 87.86629165 2.84960938 92.65625 C5.85252633 94.53273217 7.77921375 94.20271125 11.25 93.75 C13.1475 93.5025 15.045 93.255 17 93 C17 98.61 17 104.22 17 110 C11.60968674 112.1561253 7.8677158 112.39988268 2.1875 112.4375 C1.32318359 112.47037109 0.45886719 112.50324219 -0.43164062 112.53710938 C-6.82957862 112.59022433 -11.07061161 111.12598183 -16 107 C-22.29158704 99.38386832 -22.28552636 91.59384111 -22.1953125 82.16015625 C-22.1924826 81.03806259 -22.18965271 79.91596893 -22.18673706 78.75987244 C-22.17558775 75.19397082 -22.15049251 71.62832506 -22.125 68.0625 C-22.11496343 65.63737343 -22.10583876 63.21224291 -22.09765625 60.78710938 C-22.07566554 54.8579751 -22.04117163 48.92903086 -22 43 C-26.62 43 -31.24 43 -36 43 C-36 37.39 -36 31.78 -36 26 C-31.38 26 -26.76 26 -22 26 C-22 19.4 -22 12.8 -22 6 C-18.926875 5.01 -15.85375 4.02 -12.6875 3 C-11.72287842 2.68675781 -10.75825684 2.37351563 -9.7644043 2.05078125 C-9.00039307 1.80714844 -8.23638184 1.56351563 -7.44921875 1.3125 C-6.27879028 0.93544922 -6.27879028 0.93544922 -5.0847168 0.55078125 C-3 0 -3 0 0 0 Z " fill="#040405" transform="translate(751,131)"/>
<path d="M0 0 C6.15278747 5.58043515 9.33842469 12.33227356 9.90625 20.63671875 C10.17602539 31.03431202 9.04459376 39.6184012 2.27734375 47.80859375 C-1.39137692 51.56745498 -4.95196592 52.61809162 -10.0625 52.9375 C-17.10596485 52.74569612 -22.58960762 49.25276159 -28.3125 45.4375 C-28.66645882 42.52853251 -28.82864201 39.83823105 -28.8515625 36.921875 C-28.86391937 36.07328918 -28.87627625 35.22470337 -28.88900757 34.35040283 C-28.90860033 32.55154328 -28.91981058 30.75257607 -28.92333984 28.95361328 C-28.93738113 26.21072053 -29.00462058 23.47243912 -29.07421875 20.73046875 C-29.08662314 18.98179108 -29.09583965 17.23308731 -29.1015625 15.484375 C-29.12828033 14.66853943 -29.15499817 13.85270386 -29.18252563 13.012146 C-29.1419454 9.58153156 -29.03830482 7.33482489 -26.8348999 4.61071777 C-18.82744347 -2.45388526 -9.93646627 -4.68701239 0 0 Z " fill="#FCFCFC" transform="translate(893.3125,320.5625)"/>
<path d="M0 0 C6.93 0 13.86 0 21 0 C21 27.72 21 55.44 21 84 C14.07 84 7.14 84 0 84 C0 56.28 0 28.56 0 0 Z " fill="#010101" transform="translate(1122,304)"/>
<path d="M0 0 C5.82798162 4.12477427 8.05451229 9.05243272 9.6875 15.875 C10.72220581 25.49980171 10.90736062 36.42172572 5.6875 44.875 C1.0726992 50.16121649 -2.67466531 52.53180805 -9.625 53.1875 C-15.53797871 52.68640011 -18.91390229 50.21002509 -23.0625 46.25 C-29.36975022 37.84033304 -29.21858612 26.90303179 -28.3125 16.875 C-26.75758859 10.11948092 -23.47931393 4.51431198 -18.3125 -0.125 C-12.68768037 -3.6215095 -5.61908121 -3.2603251 0 0 Z " fill="#FCFCFC" transform="translate(924.3125,174.125)"/>
<path d="M0 0 C3.465 -0.0825 6.93 -0.165 10.5 -0.25 C12.11358398 -0.30462402 12.11358398 -0.30462402 13.75976562 -0.36035156 C20.73006696 -0.44008564 26.37103964 0.54067575 31.55639648 5.48364258 C35.804093 10.33954737 36.30107366 14.29863197 36.2109375 20.5 C35.79298175 25.45354959 33.79585463 28.16532319 30.4375 31.6875 C21.35278444 38.52308695 11.17949556 37 0 37 C0 24.79 0 12.58 0 0 Z " fill="#FBFBFB" transform="translate(562,144)"/>
<path d="M0 0 C3.41331856 2.76485929 6.0886737 5.32979474 6.93359375 9.765625 C6.74669152 15.65304511 5.81208073 19.13298777 1.93359375 23.765625 C-1.90353821 27.15132967 -5.70042087 27.27853672 -10.62890625 27.1171875 C-15.27216182 26.44748718 -17.88290191 24.06747978 -20.94140625 20.703125 C-22.72595279 16.04347571 -22.93720633 11.67440931 -22.06640625 6.765625 C-20.03476488 2.95291136 -17.34215877 0.59314015 -13.75390625 -1.734375 C-8.87996408 -2.64115494 -4.346257 -2.59625182 0 0 Z " fill="#FEFEFA" transform="translate(347.06640625,362.234375)"/>
<path d="M0 0 C4.14631234 2.57275927 7.12778128 5.45192151 9 10 C9.4850824 15.23888993 8.85631117 18.56779301 6 23 C1.0751504 27.44437647 -1.95161487 28.3563486 -8.45703125 28.28125 C-13.19972252 27.75671272 -15.82232734 25.33469568 -18.875 21.875 C-20.5671505 17.55061539 -20.6468421 13.57934806 -20 9 C-17.95237278 4.57712521 -15.2933935 1.82154017 -10.98828125 -0.36328125 C-7.15329063 -1.59138237 -3.78586491 -1.27530899 0 0 Z " fill="#FAFCFD" transform="translate(260,113)"/>
<path d="M0 0 C4.72531362 2.62517423 7.15053198 5.54267996 9.6875 10.375 C10.375 12.875 10.375 12.875 10.375 18.875 C-0.845 18.875 -12.065 18.875 -23.625 18.875 C-22.67495758 11.27466063 -21.85012749 6.45629854 -15.984375 1.484375 C-10.51332703 -2.01512415 -6.01625781 -1.86711449 0 0 Z " fill="#FBFBFB" transform="translate(792.625,317.125)"/>
<path d="M0 0 C5.42606101 2.76421976 9.9390963 7.16077284 12 13 C12 15.31 12 17.62 12 20 C0.78 20 -10.44 20 -22 20 C-20.82446786 11.77127505 -19.23224491 7.47221505 -13 2 C-8.74116654 -0.52179373 -4.84202706 -0.68209425 0 0 Z " fill="#FBFBFB" transform="translate(697,316)"/>
<path d="M0 0 C5.2439764 2.67145968 8.57486743 6.22099149 11.25 11.4375 C12 14 12 14 12 20 C0.78 20 -10.44 20 -22 20 C-19.96090679 10.82408057 -18.53096455 6.35094849 -11 1 C-7.52629893 -0.73685053 -3.79809188 -0.46115112 0 0 Z " fill="#FCFCFC" transform="translate(1291,316)"/>
<path d="M0 0 C3.24168949 1.62084474 5.19736744 2.94198435 7.375 5.8125 C8.71330915 10.49658201 8.55784697 13.88430606 6.375 18.25 C3.64997717 21.40528959 1.97445739 22.72517404 -2 24 C-6.57278525 24.19389902 -9.98972076 23.60186848 -13.9375 21.25 C-16.65503988 18.28541104 -17.92555436 16.15454438 -18.06640625 12.078125 C-17.8132602 7.99710378 -17.25017796 6.30149652 -14.5625 3.0625 C-9.92049552 -0.67374751 -5.81862086 -0.65147135 0 0 Z " fill="#080808" transform="translate(1137,267)"/>
<path d="M0 0 C1.67542976 0.28604898 3.34385343 0.61781233 5 1 C-0.03918951 6.03918951 -10.6785094 5.2290087 -17.4737854 5.24884033 C-18.95194229 5.2380545 -18.95194229 5.2380545 -20.45996094 5.22705078 C-22.07192856 5.22748886 -22.07192856 5.22748886 -23.71646118 5.22793579 C-27.22251838 5.22655695 -30.72835553 5.21106455 -34.234375 5.1953125 C-36.68345015 5.19157722 -39.13252681 5.18873268 -41.581604 5.18673706 C-47.99304409 5.17914115 -54.40439197 5.15952773 -60.8157959 5.1373291 C-67.37197625 5.11678319 -73.92817166 5.10771672 -80.484375 5.09765625 C-93.32295575 5.07627773 -106.16147294 5.04258158 -119 5 C-119 4.67 -119 4.34 -119 4 C-117.71341995 3.99191315 -116.4268399 3.98382629 -115.10127258 3.97549438 C-102.9349844 3.89777422 -90.76880449 3.80997098 -78.60265827 3.71247292 C-72.34897868 3.66267593 -66.09531464 3.61634517 -59.84155273 3.578125 C-53.79845595 3.54106164 -47.75549473 3.49464624 -41.71251488 3.44193649 C-39.41505516 3.42350383 -37.11756651 3.40835553 -34.82006264 3.39665604 C-16.48748958 4.73335863 -16.48748958 4.73335863 0 0 Z " fill="#FED516" transform="translate(415,326)"/>
<path d="M0 0 C0.33 0 0.66 0 1 0 C1 14.19 1 28.38 1 43 C6.61 43 12.22 43 18 43 C18 43.33 18 43.66 18 44 C8.595 44.495 8.595 44.495 -1 45 C-1.02292284 38.91271365 -1.042846 32.82557633 -1.05493164 26.73828125 C-1.05996852 24.66633599 -1.06679825 22.5943943 -1.07543945 20.52246094 C-1.08753321 17.54881918 -1.09323467 14.57522431 -1.09765625 11.6015625 C-1.10281754 10.67131256 -1.10797882 9.74106262 -1.11329651 8.78262329 C-1.11337204 7.92188202 -1.11344757 7.06114075 -1.11352539 6.17431641 C-1.115746 5.41486725 -1.11796661 4.65541809 -1.12025452 3.87295532 C-1 2 -1 2 0 0 Z " fill="#3D87B9" transform="translate(221,118)"/>
<path d="M0 0 C0.33 0 0.66 0 1 0 C0.65777318 8.89789721 -3.04963795 17.40961334 -9.375 23.75 C-10.674375 24.86375 -10.674375 24.86375 -12 26 C-12.66 25.67 -13.32 25.34 -14 25 C-13.50628906 24.45730469 -13.01257813 23.91460937 -12.50390625 23.35546875 C-11.86324219 22.64003906 -11.22257812 21.92460937 -10.5625 21.1875 C-9.92441406 20.47980469 -9.28632813 19.77210938 -8.62890625 19.04296875 C-6.80913988 17.00103848 -6.80913988 17.00103848 -6 14 C-5.34 14 -4.68 14 -4 14 C-3.87882812 13.32453125 -3.75765625 12.6490625 -3.6328125 11.953125 C-3.46523438 11.06109375 -3.29765625 10.1690625 -3.125 9.25 C-2.96257812 8.36828125 -2.80015625 7.4865625 -2.6328125 6.578125 C-2.03203736 4.13052256 -1.22002883 2.19400143 0 0 Z " fill="#175784" transform="translate(372,210)"/>
<path d="M0 0 C0.99 0.66 1.98 1.32 3 2 C3.78699619 6.80723509 4.35905974 12.62164545 1.875 16.96875 C0.5 18.3125 0.5 18.3125 -2 20 C-2.66 19.67 -3.32 19.34 -4 19 C-3.360625 18.175 -2.72125 17.35 -2.0625 16.5 C0.96201922 11.96322117 1.34867552 7.39091785 0.5625 2 C0.376875 1.34 0.19125 0.68 0 0 Z " fill="#FDD621" transform="translate(352,367)"/>
<path d="M0 0 C0.77387773 2.27304895 1.12944984 3.58096448 0.41088867 5.90698242 C-0.08060669 6.87148315 -0.08060669 6.87148315 -0.58203125 7.85546875 C-0.93716797 8.55994141 -1.29230469 9.26441406 -1.65820312 9.99023438 C-2.22958008 11.07788086 -2.22958008 11.07788086 -2.8125 12.1875 C-3.18181641 12.92419922 -3.55113281 13.66089844 -3.93164062 14.41992188 C-6.71898191 19.85949096 -6.71898191 19.85949096 -9 21 C-7.96021997 18.28057531 -6.84820903 15.7090673 -5.5 13.125 C-3.88272177 9.75567036 -2.93817036 6.60834752 -2 3 C-1.34 3 -0.68 3 0 3 C0 2.01 0 1.02 0 0 Z " fill="#FED627" transform="translate(449,292)"/>
<path d="M0 0 C0 5.28 0 10.56 0 16 C-3 13 -3 13 -3.29296875 10.08203125 C-3.25816406 9.00308594 -3.22335937 7.92414063 -3.1875 6.8125 C-3.16042969 5.72582031 -3.13335938 4.63914062 -3.10546875 3.51953125 C-3.07066406 2.68808594 -3.03585937 1.85664063 -3 1 C-1 0 -1 0 0 0 Z " fill="#353636" transform="translate(1103,320)"/>
<path d="M0 0 C1.67542976 0.28604898 3.34385343 0.61781233 5 1 C2.44085276 3.55914724 0.79558351 3.56934885 -2.75 4.125 C-4.28914063 4.37636719 -4.28914063 4.37636719 -5.859375 4.6328125 C-8.93922772 4.99289478 -11.90247797 5.06491813 -15 5 C-14.67 4.34 -14.34 3.68 -14 3 C-11.09375 2.40234375 -11.09375 2.40234375 -7.5 1.9375 C-3.42628676 1.73570599 -3.42628676 1.73570599 0 0 Z " fill="#FED629" transform="translate(415,326)"/>
<path d="M0 0 C0.66 0 1.32 0 2 0 C1.34 3.63 0.68 7.26 0 11 C-0.99 11 -1.98 11 -3 11 C-2.69217504 9.35328588 -2.37860766 7.70764424 -2.0625 6.0625 C-1.88847656 5.14597656 -1.71445313 4.22945312 -1.53515625 3.28515625 C-1 1 -1 1 0 0 Z " fill="#3783B8" transform="translate(146,207)"/>
<path d="M0 0 C0.66 0.66 1.32 1.32 2 2 C0.35 3.65 -1.3 5.3 -3 7 C-3.66 6.34 -4.32 5.68 -5 5 C-3.35 3.35 -1.7 1.7 0 0 Z " fill="#3885BB" transform="translate(232,100)"/>
<path d="M0 0 C0.33 0.99 0.66 1.98 1 3 C-0.65 4.65 -2.3 6.3 -4 8 C-4.66 7.67 -5.32 7.34 -6 7 C-2.25 1.125 -2.25 1.125 0 0 Z " fill="#FED92E" transform="translate(354,379)"/>
<path d="M0 0 C1.98 0 3.96 0 6 0 C6 0.99 6 1.98 6 3 C3.69 3 1.38 3 -1 3 C-0.67 2.01 -0.34 1.02 0 0 Z " fill="#FEE65C" transform="translate(260,256)"/>
</svg>
